<svg width="24" height="24" viewBox="0 0 24 24" fill="none" xmlns="http://www.w3.org/2000/svg">
<path d="M3.8633 16.455C3.0053 13.023 2.5763 11.308 3.4773 10.154C4.3783 9 6.1473 9 9.6843 9H14.3143C17.8523 9 19.6203 9 20.5213 10.154C21.4223 11.308 20.9933 13.024 20.1353 16.455C19.5893 18.638 19.3173 19.729 18.5033 20.365C17.6893 21 16.5643 21 14.3143 21H9.6843C7.4343 21 6.3093 21 5.4953 20.365C4.6813 19.729 4.4083 18.638 3.8633 16.455Z" stroke="#4D4D4D" stroke-width="2"/>
<path d="M19.5 9.5L18.79 6.895C18.516 5.89 18.379 5.388 18.098 5.009C17.8178 4.63246 17.4373 4.3424 17 4.172C16.56 4 16.04 4 15 4M4.5 9.5L5.21 6.895C5.484 5.89 5.621 5.388 5.902 5.009C6.18218 4.63246 6.56269 4.3424 7 4.172C7.44 4 7.96 4 9 4" stroke="#4D4D4D" stroke-width="2"/>
<path d="M9 4C9 3.73478 9.10536 3.48043 9.29289 3.29289C9.48043 3.10536 9.73478 3 10 3H14C14.2652 3 14.5196 3.10536 14.7071 3.29289C14.8946 3.48043 15 3.73478 15 4C15 4.26522 14.8946 4.51957 14.7071 4.70711C14.5196 4.89464 14.2652 5 14 5H10C9.73478 5 9.48043 4.89464 9.29289 4.70711C9.10536 4.51957 9 4.26522 9 4Z" stroke="#4D4D4D" stroke-width="2"/>
</svg>
