<svg width="11" height="12" viewBox="0 0 11 12" fill="none" xmlns="http://www.w3.org/2000/svg">
<path d="M7.67805 2.15919C7.8517 1.89753 8.19367 1.81388 8.46573 1.95694L8.51945 1.98854L8.69958 2.11416C9.58799 2.75658 10.2638 3.65277 10.6368 4.68734C11.0345 5.7908 11.0671 6.99315 10.7284 8.11614C10.3897 9.23905 9.69797 10.2229 8.75646 10.9224C7.81485 11.6219 6.6729 12 5.4999 12C4.32689 12 3.18495 11.6219 2.24333 10.9224C1.30183 10.2229 0.610114 9.23905 0.271378 8.11614C-0.0673428 6.99315 -0.034716 5.7908 0.363023 4.68734C0.760808 3.58384 1.50298 2.63715 2.48034 1.98854L2.53407 1.95694C2.80613 1.81388 3.1481 1.89753 3.32174 2.15919C3.50677 2.43837 3.4302 2.81458 3.15109 2.9998L3.01126 3.09698C2.32016 3.59665 1.79473 4.2942 1.50464 5.09895C1.19533 5.95715 1.17012 6.89198 1.43353 7.76536C1.69698 8.63878 2.2347 9.4042 2.96701 9.94825C3.69938 10.4923 4.58756 10.7865 5.4999 10.7865C6.41224 10.7865 7.30042 10.4923 8.03278 9.94825C8.76509 9.4042 9.30282 8.63878 9.56626 7.76536C9.82968 6.89198 9.80447 5.95715 9.49516 5.09895C9.20506 4.2942 8.67964 3.59665 7.98854 3.09698L7.8487 2.9998L7.79814 2.96346C7.56049 2.76847 7.5046 2.42092 7.67805 2.15919ZM4.89314 4.92119V0.606755C4.89314 0.271743 5.16492 0.000145735 5.4999 0C5.835 0 6.10665 0.271653 6.10665 0.606755V4.92119C6.10665 5.25629 5.835 5.52795 5.4999 5.52795C5.16492 5.5278 4.89314 5.2562 4.89314 4.92119Z" fill="#F55344"/>
</svg>
