<svg width="13" height="13" viewBox="0 0 13 13" fill="none" xmlns="http://www.w3.org/2000/svg">
<path d="M9.58002 9.89166L9.14335 9.45432C9.08557 9.39699 9.01735 9.36833 8.93868 9.36833C8.85957 9.36833 8.79135 9.39699 8.73402 9.45432C8.67668 9.51121 8.64802 9.57855 8.64802 9.65632C8.64802 9.7341 8.67668 9.80166 8.73402 9.85899L9.30735 10.4323C9.39002 10.5154 9.48313 10.557 9.58668 10.557C9.69024 10.557 9.78335 10.5154 9.86602 10.4323L11.2647 9.05432C11.322 8.99699 11.3529 8.93099 11.3573 8.85633C11.3618 8.78121 11.3309 8.71077 11.2647 8.64499C11.2073 8.58766 11.1371 8.55899 11.054 8.55899C10.9709 8.55899 10.9005 8.58788 10.8427 8.64566L9.58002 9.89166ZM2.84602 3.32033H9.15402C9.24868 3.32033 9.32779 3.28855 9.39135 3.22499C9.4549 3.16144 9.48691 3.0821 9.48735 2.98699C9.48735 2.88344 9.45535 2.8021 9.39135 2.74299C9.32779 2.68344 9.24868 2.65366 9.15402 2.65366H2.84535C2.75068 2.65366 2.67135 2.68544 2.60735 2.74899C2.54335 2.81255 2.51157 2.89188 2.51202 2.98699C2.51246 3.0821 2.54424 3.16144 2.60735 3.22499C2.67046 3.28855 2.75046 3.32033 2.84602 3.32033ZM9.99935 12.2443C9.25668 12.2443 8.62668 11.9854 8.10935 11.4677C7.59157 10.9503 7.33268 10.3203 7.33268 9.57766C7.33268 8.83499 7.59157 8.20477 8.10935 7.68699C8.62713 7.16921 9.25713 6.91055 9.99935 6.91099C10.7416 6.91144 11.3718 7.1701 11.89 7.68699C12.4082 8.20388 12.6669 8.8341 12.666 9.57766C12.666 10.3199 12.4073 10.9499 11.89 11.4677C11.3718 11.9854 10.7416 12.2443 9.99935 12.2443ZM0.666016 1.24433C0.666016 0.945659 0.770905 0.691437 0.980682 0.481659C1.19046 0.271881 1.44468 0.166992 1.74335 0.166992H10.256C10.5538 0.166992 10.8078 0.271881 11.018 0.481659C11.2278 0.691437 11.3327 0.945659 11.3327 1.24433V4.78899C11.3327 4.88366 11.3009 4.96299 11.2373 5.02699C11.1738 5.09099 11.0945 5.12277 10.9993 5.12232C10.9042 5.12188 10.8249 5.0901 10.7613 5.02699C10.6978 4.96388 10.666 4.88455 10.666 4.78899V1.24433C10.666 1.14166 10.6233 1.04744 10.538 0.961659C10.4527 0.875881 10.3585 0.833214 10.2554 0.833659H1.74335C1.64068 0.833659 1.54646 0.876325 1.46068 0.961659C1.3749 1.04699 1.33224 1.14121 1.33268 1.24433V10.2003H5.56202C5.57579 10.2901 5.59202 10.3799 5.61068 10.4697C5.62979 10.5594 5.65424 10.6479 5.68402 10.735C5.71379 10.8145 5.69379 10.8797 5.62402 10.9303C5.55379 10.9814 5.48713 10.9837 5.42402 10.937L5.25802 10.8237C5.20868 10.7912 5.15668 10.775 5.10202 10.775C5.04735 10.775 4.99513 10.7912 4.94535 10.8237L4.36068 11.2283C4.31135 11.2612 4.25935 11.2777 4.20468 11.2777C4.15002 11.2777 4.09779 11.2612 4.04802 11.2283L3.46335 10.8237C3.41357 10.7912 3.36135 10.775 3.30668 10.775C3.25202 10.775 3.20002 10.7912 3.15068 10.8237L2.56602 11.2283C2.51668 11.2612 2.46468 11.2777 2.41002 11.2777C2.35535 11.2777 2.30313 11.2612 2.25335 11.2283L1.66868 10.8237C1.6189 10.7912 1.56668 10.775 1.51202 10.775C1.45735 10.775 1.40535 10.7912 1.35602 10.8237L0.666016 11.359V1.24433ZM2.84602 8.34632H5.42868C5.52379 8.34632 5.60313 8.31455 5.66668 8.25099C5.73024 8.18744 5.76202 8.1081 5.76202 8.01299C5.76202 7.91788 5.73024 7.83877 5.66668 7.77566C5.60313 7.71255 5.52379 7.68055 5.42868 7.67966H2.84602C2.75135 7.67966 2.67202 7.71166 2.60802 7.77566C2.54402 7.83966 2.51224 7.91877 2.51268 8.01299C2.51313 8.10721 2.5449 8.18655 2.60802 8.25099C2.67113 8.31544 2.75046 8.34721 2.84602 8.34632ZM2.84602 5.83366H7.64868C7.74335 5.83366 7.82268 5.80188 7.88668 5.73833C7.95068 5.67477 7.98246 5.59544 7.98202 5.50033C7.98157 5.40521 7.94979 5.32588 7.88668 5.26232C7.82357 5.19877 7.74424 5.16699 7.64868 5.16699H2.84535C2.75068 5.16699 2.67135 5.19877 2.60735 5.26232C2.54335 5.32588 2.51179 5.40521 2.51268 5.50033C2.51357 5.59544 2.54535 5.67477 2.60802 5.73833C2.67068 5.80188 2.75002 5.83366 2.84602 5.83366Z" fill="black"/>
</svg>
