<svg width="12" height="12" viewBox="0 0 12 12" fill="none" xmlns="http://www.w3.org/2000/svg">
<path d="M6.03973 7.09091L6.08714 7.09304C6.10282 7.09441 6.11849 7.09617 6.13401 7.0989L10.1128 7.79883L10.1411 7.80469C10.8729 7.97377 11.6979 8.43913 11.9004 9.36168L11.918 9.45277L11.9212 9.47354L11.9835 9.95348H11.983C12.1397 11.1439 11.1923 12 10.0974 12C10.074 12 10.051 11.9976 10.0282 11.9947H1.90323C0.807787 11.9947 -0.140119 11.1372 0.017146 9.94656L0.0794652 9.47301L0.082661 9.45117C0.249179 8.4858 1.1076 7.96799 1.86648 7.80309L1.88779 7.79883L5.86662 7.0989L5.9135 7.09304C5.92925 7.09166 5.94507 7.09091 5.9609 7.09091H6.03973ZM2.09019 8.87056C1.55515 8.98899 1.21885 9.29221 1.15807 9.63281L1.09894 10.0888V10.0893C1.04147 10.524 1.3592 10.9038 1.90323 10.9038H10.1033C10.1174 10.9038 10.1314 10.9059 10.1453 10.907C10.6603 10.8854 10.9574 10.5167 10.9017 10.0952V10.0941L10.8415 9.63015C10.7804 9.28432 10.4611 8.99971 9.89979 8.86896L5.99978 8.18342L2.09019 8.87056ZM8.17936 3.1646C8.15262 2.62533 7.92642 2.11372 7.54285 1.73011C7.13372 1.32096 6.57891 1.09093 6.00032 1.09091C5.42171 1.09091 4.86693 1.32097 4.45778 1.73011C4.04864 2.13928 3.81861 2.69407 3.81861 3.27273C3.81861 3.85138 4.04864 4.40617 4.45778 4.81534C4.86693 5.22449 5.42171 5.45455 6.00032 5.45455C6.57891 5.45452 7.13372 5.22449 7.54285 4.81534C7.95197 4.40617 8.18202 3.85136 8.18202 3.27273L8.17936 3.1646ZM9.26861 3.43519C9.22844 4.244 8.88941 5.0113 8.31412 5.58665C7.70041 6.20038 6.86822 6.54543 6.00032 6.54545C5.13238 6.54545 4.29971 6.2004 3.68599 5.58665C3.0724 4.97291 2.72776 4.1406 2.72776 3.27273C2.72776 2.40485 3.0724 1.57254 3.68599 0.958807C4.29971 0.345051 5.13238 0 6.00032 0C6.86822 2.1077e-05 7.70041 0.34507 8.31412 0.958807C8.92781 1.57256 9.27287 2.40476 9.27287 3.27273L9.26861 3.43519Z" fill="#2A1A0C"/>
</svg>
